<svg width="566" height="970" viewBox="0 0 566 970" fill="none" xmlns="http://www.w3.org/2000/svg">
<g opacity="0.08">
<rect width="492.742" height="145.108" rx="72.554" transform="matrix(-0.625562 -0.780175 0.751417 -0.659827 533.983 966)" fill="#46E6C9" fill-opacity="0.9"/>
<rect width="492.738" height="145.108" rx="72.554" transform="matrix(0.625562 -0.780175 0.751417 0.659827 7 868.422)" fill="#7453C7" fill-opacity="0.52"/>
<path d="M182.156 175.596C181.974 148.93 189.829 127.676 205.721 111.834C221.612 95.7249 245.69 87.5604 277.956 87.3402L401.953 86.494L402.471 162.492L290.874 163.254C275.674 163.358 264.495 166.367 257.335 172.283C250.173 177.932 246.628 185.956 246.699 196.356C246.777 207.822 250.84 216.995 258.887 223.874C266.934 230.752 279.091 234.136 295.357 234.025L402.955 233.291L403.473 309.289L291.876 310.05C262.277 310.252 247.551 321.287 247.701 343.153C247.781 354.886 251.844 364.192 259.892 371.07C267.939 377.949 280.095 381.332 296.362 381.221L403.959 380.487L404.478 456.485L187.683 457.965L187.189 385.567L209.988 385.411C201.134 377.471 194.536 368.049 190.195 357.145C185.585 345.977 183.236 333.859 183.147 320.793C183.043 305.593 185.75 291.974 191.268 279.936C196.786 267.898 205.253 258.107 216.668 250.562C205.677 242.104 197.203 231.361 191.248 218.335C185.292 205.309 182.261 191.062 182.156 175.596ZM405.007 6.50255C405.094 19.3023 400.901 30.1311 392.428 38.9891C383.955 47.8472 373.186 52.3208 360.119 52.41C346.786 52.5009 335.957 48.3081 327.633 39.8314C319.306 31.088 315.098 20.1831 315.009 7.11675C314.918 -6.21627 318.977 -17.1776 327.185 -25.7671C335.393 -34.3567 346.164 -38.6969 359.497 -38.7879C372.563 -38.8771 383.393 -34.5509 391.986 -25.8093C400.577 -17.3344 404.918 -6.56382 405.007 6.50255Z" fill="#7453C7"/>
</g>
</svg>
